# xmcd
#
# Track frame offsets:
#	150
#	18837
#	38362
#	54612
#	76637
#	97850
#	122600
#	142500
#	159225
#	181487
#	199075
#	216012
#	234437
#	253587
#	273750
#	294862
#	315262
#	336100
#
# Disc length: 4741 seconds
#
# Revision: 0
# Processed by: cddbd v1.5.1PL0 Copyright (c) Steve Scherf et al.
# Submitted via: dBpowerAMP V4.0
#
DISCID=d3128312
DTITLE=Paul Young - Portrait
DYEAR=1900
DGENRE=Pop
TTITLE0=Wherever I Lay My Hat (That´s My Home)
TTITLE1=Come Back And Stay
TTITLE2=Love Of The Common People
TTITLE3=Love Will Tear Us Apart
TTITLE4=I´m Gonna Tear Your Playhouse Down
TTITLE5=Everything Must Change
TTITLE6=Everytime You Go Away
TTITLE7=Softly Whispering I Love You
TTITLE8=Wonderland
TTITLE9=Broken Man
TTITLE10=A Little Bit Of Love
TTITLE11=Heaven Can Wait
TTITLE12=Hope In A Hopeless World
TTITLE13=I´m Only Fooling Myself
TTITLE14=Some People
TTITLE15=Together
TTITLE16=Our Time Has Come
TTITLE17=Don´t Dream It´s Over
EXTD=
EXTT0=
EXTT1=
EXTT2=
EXTT3=
EXTT4=
EXTT5=
EXTT6=
EXTT7=
EXTT8=
EXTT9=
EXTT10=
EXTT11=
EXTT12=
EXTT13=
EXTT14=
EXTT15=
EXTT16=
EXTT17=
PLAYORDER=
